# Blender v2.90.0 OBJ File: 'Sketchfab_2020_11_24_00_12_25.blend'
# www.blender.org
mtllib bun.mtl
o Chocolate_Brioche_Cube.002
v -0.049498 0.003725 0.027015
v -0.042414 0.035198 0.023465
v -0.047885 0.003241 -0.025775
v -0.041139 0.029891 -0.021422
v 0.051335 0.003812 0.027443
v 0.044499 0.033077 0.024147
v 0.051590 0.004637 -0.025857
v 0.044332 0.029283 -0.021629
v -0.053399 0.002858 0.001163
v -0.048815 0.019398 0.028188
v -0.043112 0.032734 0.000385
v -0.048372 0.018317 -0.026590
v 0.000696 0.005903 -0.027535
v 0.000542 0.033509 -0.026676
v 0.051657 0.018294 -0.026588
v 0.054652 0.002766 0.000561
v 0.045548 0.031896 0.000586
v 0.051026 0.020012 0.029359
v 0.000482 0.004576 0.029110
v 0.000734 0.037824 0.029092
v -0.055507 0.017910 0.000627
v 0.000956 0.020697 -0.036164
v 0.055846 0.017855 0.000675
v 0.000476 0.021312 0.036705
v 0.000775 0.005134 0.000634
v 0.000796 0.037797 0.000433
v -0.027284 0.004449 -0.027772
v -0.023954 0.033510 -0.025704
v -0.027452 0.003761 0.028173
v -0.024124 0.038835 0.027147
v -0.026879 0.019845 -0.036393
v -0.026205 0.020250 0.036946
v -0.028993 0.003045 0.000383
v -0.023319 0.040271 -0.000006
v 0.029051 0.005633 -0.028634
v 0.026149 0.033098 -0.025845
v 0.029000 0.002761 0.029716
v 0.026125 0.037567 0.029209
v 0.028138 0.019937 -0.036200
v 0.027588 0.020683 0.036927
v 0.030620 0.003184 0.000032
v 0.025901 0.039365 -0.000129
v -0.052503 0.001968 -0.014394
v -0.052960 0.003033 0.015890
v -0.051590 0.010470 0.029548
v -0.045574 0.027640 0.025523
v -0.043450 0.034165 0.014246
v -0.042608 0.031280 -0.012811
v -0.044100 0.024569 -0.024135
v -0.051085 0.010964 -0.028698
v 0.015030 0.005783 -0.027277
v -0.039712 0.003854 -0.027121
v -0.011987 0.033263 -0.026284
v 0.037606 0.032246 -0.024486
v 0.047788 0.024964 -0.024400
v 0.053360 0.010389 -0.026397
v 0.054416 0.002349 0.016049
v 0.053820 0.002250 -0.014858
v 0.045396 0.030709 -0.013142
v 0.045529 0.032886 0.014226
v 0.047471 0.027348 0.026796
v 0.053043 0.011348 0.029456
v -0.013487 0.004150 0.028254
v 0.042241 0.002342 0.030118
v 0.013479 0.038489 0.029995
v -0.035625 0.040313 0.025254
v -0.052904 0.017815 0.015811
v -0.049256 0.024597 0.000758
v -0.053216 0.017119 -0.014443
v -0.058423 0.009898 0.001467
v -0.012570 0.020281 -0.036700
v 0.000733 0.027427 -0.033807
v 0.014391 0.020500 -0.036366
v 0.000779 0.013340 -0.033315
v 0.054924 0.016777 -0.014177
v 0.051746 0.024467 0.000572
v 0.055859 0.018093 0.016604
v 0.057526 0.009940 0.000968
v 0.014042 0.021113 0.037026
v 0.000656 0.029640 0.036348
v -0.012995 0.020768 0.036691
v 0.000256 0.012151 0.034544
v 0.001091 0.002082 -0.015491
v 0.015607 0.004518 0.000317
v 0.000924 0.003428 0.015594
v -0.014193 0.004789 0.000607
v 0.000726 0.035188 -0.014382
v -0.011606 0.038767 0.000259
v 0.000878 0.040416 0.015635
v 0.013254 0.038369 0.000362
v -0.013498 0.005042 -0.027829
v -0.035045 0.032743 -0.024356
v -0.039578 0.003801 0.027730
v -0.011835 0.037831 0.028696
v -0.038868 0.019757 -0.034923
v -0.039270 0.020073 0.036182
v -0.041963 0.002281 0.000784
v -0.034839 0.038311 0.000115
v -0.023691 0.041544 0.014840
v -0.023321 0.038039 -0.014292
v -0.028314 0.001953 0.015160
v -0.028140 0.000725 -0.015377
v -0.026928 0.011012 0.034387
v -0.024948 0.029077 0.035186
v -0.025146 0.027055 -0.033171
v -0.026694 0.012141 -0.034158
v 0.042155 0.005414 -0.028595
v 0.013447 0.033046 -0.026225
v 0.014443 0.003727 0.028613
v 0.037946 0.036308 0.028447
v 0.041264 0.018979 -0.035857
v 0.040602 0.020220 0.035601
v 0.044266 0.001478 -0.000164
v 0.037358 0.037545 0.000374
v 0.025658 0.041209 0.014659
v 0.025681 0.038771 -0.015524
v 0.030017 0.001453 0.015729
v 0.030103 0.001001 -0.016727
v 0.026726 0.029620 0.035930
v 0.028422 0.012197 0.034351
v 0.028564 0.013199 -0.031387
v 0.027151 0.027400 -0.033448
v -0.056751 0.010088 0.016585
v -0.047130 0.024559 0.014914
v -0.047513 0.023415 -0.013348
v -0.056569 0.009953 -0.014247
v -0.013062 0.012659 -0.034102
v -0.012309 0.026963 -0.033293
v 0.039569 0.027073 -0.031631
v 0.041727 0.011459 -0.033301
v 0.056589 0.009866 -0.014583
v 0.050277 0.023917 -0.013695
v 0.050230 0.024949 0.015152
v 0.058246 0.010667 0.016596
v 0.013875 0.012917 0.033361
v 0.013818 0.029808 0.036479
v -0.037272 0.030212 0.033366
v -0.040165 0.010484 0.035037
v -0.013765 0.001209 -0.015498
v 0.043338 0.000612 -0.015893
v 0.043501 0.001015 0.015497
v -0.013758 0.002843 0.015370
v 0.013086 0.038080 -0.014862
v -0.034501 0.036351 -0.013585
v -0.035136 0.040871 0.014294
v 0.013198 0.040780 0.015469
v -0.011553 0.040966 0.015492
v -0.011910 0.036523 -0.014178
v -0.041423 0.002050 0.015102
v -0.041330 0.000455 -0.014949
v -0.013345 0.011425 0.034481
v -0.012455 0.029292 0.035868
v -0.036715 0.026618 -0.030910
v -0.039848 0.011748 -0.035477
v 0.037710 0.038843 0.014410
v 0.037184 0.036111 -0.013846
v 0.015533 0.002782 0.015792
v 0.015667 0.001430 -0.015935
v 0.039180 0.028934 0.034066
v 0.041492 0.011634 0.035529
v 0.014249 0.013075 -0.033051
v 0.013955 0.027507 -0.033921
vt 0.795052 0.703963
vt 0.797174 0.794376
vt 0.742575 0.797534
vt 0.740049 0.707613
vt 0.654004 0.802915
vt 0.606134 0.811260
vt 0.604554 0.714619
vt 0.649804 0.713303
vt 0.892944 0.706787
vt 0.894637 0.799650
vt 0.852823 0.800175
vt 0.856237 0.702848
vt 0.704060 0.895257
vt 0.663928 0.897462
vt 0.696225 0.803432
vt 0.935018 0.799684
vt 0.938910 0.890976
vt 0.893303 0.896151
vt 0.693959 0.710852
vt 0.618008 0.912248
vt 0.797425 0.880788
vt 0.748143 0.887659
vt 0.724354 0.973439
vt 0.681571 0.988976
vt 0.765225 0.957481
vt 0.226510 0.744280
vt 0.225643 0.810744
vt 0.154205 0.811548
vt 0.157469 0.742970
vt 0.223951 0.863306
vt 0.145311 0.864667
vt 0.863096 0.627110
vt 0.812971 0.695055
vt 0.830411 0.623713
vt 0.633827 0.990408
vt 0.220614 0.919965
vt 0.143985 0.919492
vt 0.216986 0.989927
vt 0.136605 0.988655
vt 0.300208 0.918819
vt 0.301231 0.861598
vt 0.300158 0.810342
vt 0.540307 0.964182
vt 0.465560 0.981714
vt 0.457572 0.922982
vt 0.527623 0.913265
vt 0.513503 0.751443
vt 0.513701 0.812323
vt 0.448263 0.811478
vt 0.446476 0.745561
vt 0.298723 0.744057
vt 0.307748 0.413574
vt 0.305594 0.323927
vt 0.387507 0.323080
vt 0.385919 0.413428
vt 0.518639 0.866965
vt 0.453443 0.865394
vt 0.081021 0.419114
vt 0.076031 0.324515
vt 0.147036 0.330315
vt 0.152612 0.422589
vt 0.560509 0.760458
vt 0.574253 0.802959
vt 0.601884 0.913591
vt 0.597038 0.957013
vt 0.978750 0.656869
vt 0.982032 0.712615
vt 0.937473 0.709537
vt 0.948546 0.640420
vt 0.906886 0.627574
vt 0.590019 0.858099
vt 0.018501 0.318938
vt 0.029777 0.396534
vt 0.989426 0.229869
vt 0.908109 0.230252
vt 0.911936 0.151555
vt 0.986448 0.146279
vt 0.986308 0.801207
vt 0.809194 0.794889
vt 0.070424 0.218604
vt 0.073934 0.111773
vt 0.146878 0.109114
vt 0.145102 0.216188
vt 0.854680 0.893992
vt 0.307075 0.210969
vt 0.388186 0.210686
vt 0.807309 0.895340
vt 0.987599 0.889063
vt 0.907828 0.978954
vt 0.859269 0.978505
vt 0.952017 0.966509
vt 0.369998 0.724610
vt 0.374080 0.649196
vt 0.445100 0.652397
vt 0.442524 0.724603
vt 0.377780 0.589238
vt 0.452464 0.592219
vt 0.027795 0.028957
vt 0.079358 0.011613
vt 0.013785 0.108695
vt 0.816414 0.971631
vt 0.379732 0.525271
vt 0.461356 0.531789
vt 0.387103 0.452354
vt 0.471091 0.458983
vt 0.302130 0.519930
vt 0.301382 0.585908
vt 0.300371 0.644255
vt 0.077003 0.444630
vt 0.146087 0.441001
vt 0.149597 0.507259
vt 0.079320 0.509690
vt 0.087228 0.724797
vt 0.090924 0.636965
vt 0.157405 0.633196
vt 0.154158 0.720839
vt 0.297092 0.721521
vt 0.988360 0.314747
vt 0.906414 0.311934
vt 0.085084 0.569625
vt 0.153057 0.572520
vt 0.966879 0.547768
vt 0.894100 0.540087
vt 0.898464 0.467683
vt 0.977831 0.475054
vt 0.025921 0.636986
vt 0.041287 0.693854
vt 0.020500 0.452563
vt 0.012643 0.505036
vt 0.225754 0.578737
vt 0.226786 0.638317
vt 0.225471 0.511730
vt 0.017086 0.571934
vt 0.894310 0.602740
vt 0.951564 0.594340
vt 0.226259 0.444441
vt 0.306428 0.454080
vt 0.984029 0.396749
vt 0.901824 0.393952
vt 0.012810 0.214121
vt 0.469374 0.212421
vt 0.465954 0.321343
vt 0.805538 0.540853
vt 0.713687 0.538533
vt 0.710920 0.465591
vt 0.806373 0.465179
vt 0.305711 0.108367
vt 0.386236 0.109388
vt 0.809628 0.309397
vt 0.811457 0.229277
vt 0.465843 0.110637
vt 0.307753 0.014590
vt 0.384270 0.019891
vt 0.151762 0.012463
vt 0.815661 0.148217
vt 0.721349 0.148012
vt 0.725582 0.071512
vt 0.814430 0.074302
vt 0.226595 0.213587
vt 0.225757 0.107980
vt 0.655969 0.600435
vt 0.643352 0.542422
vt 0.716405 0.608353
vt 0.460865 0.019880
vt 0.708476 0.387005
vt 0.807843 0.389492
vt 0.540598 0.209776
vt 0.537354 0.111041
vt 0.600852 0.105625
vt 0.603467 0.206648
vt 0.807425 0.607062
vt 0.710021 0.306241
vt 0.713760 0.226687
vt 0.617970 0.304021
vt 0.617202 0.220566
vt 0.627125 0.466958
vt 0.729240 0.008255
vt 0.817765 0.009848
vt 0.617359 0.386217
vt 0.624551 0.138317
vt 0.649757 0.627297
vt 0.608453 0.637816
vt 0.527578 0.022868
vt 0.529978 0.404489
vt 0.537632 0.317467
vt 0.599113 0.313304
vt 0.574750 0.392665
vt 0.083706 0.861357
vt 0.076610 0.909118
vt 0.009497 0.912131
vt 0.016179 0.853437
vt 0.635507 0.061842
vt 0.582132 0.028789
vt 0.976773 0.071369
vt 0.905092 0.077373
vt 0.907047 0.014208
vt 0.962964 0.021549
vt 0.461744 0.411166
vt 0.510643 0.716793
vt 0.512503 0.653351
vt 0.573930 0.664150
vt 0.561279 0.711425
vt 0.091031 0.810324
vt 0.063780 0.982426
vt 0.015814 0.974552
vt 0.092198 0.747426
vt 0.034071 0.800108
vt 0.048383 0.754569
vt 0.225262 0.717075
vt 0.300054 0.987155
vt 0.522640 0.596431
vt 0.589247 0.606780
vt 0.531851 0.541677
vt 0.602565 0.545221
vt 0.987206 0.952726
vt 0.546809 0.471896
vt 0.601714 0.489401
vt 0.231423 0.018639
vt 0.664427 0.012932
vt 0.229176 0.413744
vt 0.225073 0.326125
vt 0.373213 0.743925
vt 0.374931 0.810551
vt 0.701117 0.628422
vt 0.383528 0.988862
vt 0.377022 0.919828
vt 0.377124 0.862781
vt 0.797663 0.938272
vt 0.795732 0.643364
vt 0.750461 0.637337
vn -0.7802 0.6253 -0.0146
vn -0.7242 0.6842 -0.0860
vn -0.7937 0.6078 -0.0261
vn -0.8477 0.5248 0.0767
vn -0.9972 -0.0750 0.0052
vn -0.5331 -0.8457 0.0215
vn -0.5400 -0.8293 0.1434
vn -0.9733 -0.0517 0.2236
vn 0.9174 0.3722 -0.1404
vn 0.9118 0.4083 -0.0435
vn 0.9962 -0.0768 -0.0399
vn 0.9856 -0.0641 -0.1567
vn -0.8284 0.5218 -0.2036
vn -0.9711 -0.0629 -0.2300
vn -0.8440 0.5361 -0.0122
vn 0.8137 0.5801 -0.0358
vn 0.8234 0.5630 0.0714
vn 0.9017 0.4112 0.1331
vn -0.8511 0.4978 0.1664
vn -0.5465 -0.8234 -0.1525
vn -0.6918 0.7010 -0.1731
vn -0.7718 0.6127 -0.1698
vn -0.7335 0.4818 -0.4794
vn -0.7540 -0.1060 -0.6482
vn -0.6970 0.6081 -0.3799
vn 0.0123 0.8810 -0.4729
vn -0.0215 0.5949 -0.8035
vn -0.0785 0.6120 -0.7869
vn -0.0541 0.8638 -0.5009
vn 0.0085 0.0486 -0.9988
vn -0.0492 0.1342 -0.9897
vn 0.8038 -0.1482 -0.5762
vn 0.6099 -0.7772 -0.1545
vn 0.5109 -0.6748 -0.5326
vn -0.4154 -0.7725 -0.4803
vn 0.0378 -0.4832 -0.8747
vn 0.0180 -0.4529 -0.8914
vn 0.0479 -0.8278 -0.5589
vn 0.0336 -0.8418 -0.5387
vn 0.0318 -0.4965 -0.8674
vn 0.0082 0.0037 -0.9999
vn -0.0118 0.5859 -0.8103
vn 0.1057 -0.7338 -0.6711
vn -0.0400 -0.7520 -0.6579
vn -0.0355 -0.4855 -0.8735
vn 0.2093 -0.3600 -0.9092
vn 0.3317 0.8402 -0.4288
vn 0.3518 0.6416 -0.6816
vn 0.0686 0.6144 -0.7859
vn 0.0733 0.8588 -0.5071
vn -0.0202 0.8923 -0.4509
vn 0.0278 -0.8176 -0.5751
vn 0.0083 -0.9981 -0.0603
vn 0.0535 -0.9972 -0.0529
vn 0.3253 0.0852 -0.9417
vn 0.0268 -0.0484 -0.9984
vn 0.0345 -0.9906 -0.1324
vn -0.0472 -0.9907 -0.1272
vn 0.6153 0.7372 -0.2789
vn 0.7097 0.6056 -0.3600
vn 0.6689 0.7299 -0.1404
vn 0.8079 0.5766 -0.1210
vn 0.8049 0.3048 -0.5091
vn -0.0208 0.8727 -0.4878
vn -0.0841 0.9742 -0.2094
vn 0.0703 0.9661 -0.2484
vn 0.6960 0.7158 -0.0566
vn 0.6230 -0.7821 -0.0149
vn 0.0289 -0.9995 0.0099
vn 0.0414 -0.9987 0.0291
vn -0.0707 -0.9975 -0.0044
vn -0.0762 -0.9969 0.0179
vn 0.9847 -0.0638 0.1621
vn -0.0018 -0.9993 0.0376
vn 0.0602 -0.9974 0.0394
vn 0.6137 -0.7803 0.1202
vn 0.7207 0.6926 0.0303
vn 0.7429 0.3351 0.5795
vn 0.7498 -0.1035 0.6535
vn 0.7465 0.5170 0.4189
vn 0.0004 0.8552 0.5182
vn 0.0071 0.3664 0.9304
vn 0.0912 0.3889 0.9167
vn 0.1019 0.8505 0.5159
vn 0.0009 -0.1334 0.9911
vn 0.0299 -0.0688 0.9972
vn 0.5323 -0.6902 0.4901
vn 0.1253 -0.8062 0.5782
vn -0.0102 -0.4120 0.9111
vn -0.0512 -0.3584 0.9321
vn -0.0518 -0.8474 0.5284
vn -0.0781 -0.8300 0.5522
vn 0.0237 -0.4247 0.9050
vn 0.0016 -0.1055 0.9944
vn -0.0324 0.3707 0.9282
vn -0.0658 -0.8803 0.4699
vn 0.0191 -0.8868 0.4617
vn 0.0123 -0.4628 0.8863
vn -0.2179 -0.3540 0.9095
vn -0.3236 0.8551 0.4051
vn -0.3591 0.4725 0.8048
vn -0.0531 0.4205 0.9057
vn -0.0100 0.8582 0.5132
vn -0.0305 0.8616 0.5066
vn -0.0266 0.9826 -0.1838
vn -0.3412 0.1413 0.9293
vn -0.0255 -0.0115 0.9996
vn -0.3427 0.8213 -0.4560
vn -0.3413 0.9149 -0.2156
vn -0.0232 0.9703 -0.2409
vn -0.8071 0.4659 0.3627
vn -0.7559 0.5989 0.2644
vn -0.4204 -0.7866 0.4522
vn -0.7414 -0.1459 0.6550
vn -0.0049 -0.0645 0.9979
vn -0.0327 0.3937 0.9186
vn 0.0092 -0.4492 0.8934
vn -0.7727 0.3687 0.5166
vn -0.6555 0.6821 -0.3239
vn 0.0242 -0.8831 0.4686
vn 0.0097 -0.8560 0.5168
vn 0.0814 0.9745 -0.2088
vn 0.0581 -0.9973 0.0433
vn 0.0444 -0.9969 -0.0650
vn -0.3641 0.9213 -0.1362
vn -0.3335 0.9422 -0.0313
vn 0.0116 0.9995 0.0292
vn -0.0120 0.9903 -0.1380
vn -0.0082 -0.9998 -0.0165
vn 0.0494 -0.9987 -0.0044
vn -0.0066 0.9894 -0.1451
vn -0.0775 0.9912 -0.1074
vn 0.0378 -0.9989 0.0255
vn 0.0623 0.9943 -0.0865
vn 0.0730 0.9967 0.0361
vn 0.3741 0.9268 0.0321
vn 0.3872 0.9180 -0.0858
vn -0.0567 -0.9979 0.0304
vn -0.0674 -0.9976 -0.0173
vn 0.0538 0.9976 0.0441
vn 0.0933 0.9847 -0.1470
vn -0.0236 -0.9988 0.0418
vn -0.0236 -0.9985 0.0487
vn -0.0014 0.9998 0.0172
vn -0.0286 0.9994 0.0195
vn -0.0078 0.8500 0.5267
vn -0.0754 -0.8439 -0.5311
vn -0.0233 -0.9974 -0.0674
vn -0.3616 0.3196 -0.8758
vn -0.2475 -0.2814 -0.9271
vn 0.3682 0.8002 0.4733
vn 0.3686 0.9076 -0.2008
vn 0.3663 0.4380 0.8209
vn 0.7005 0.6642 0.2611
vn -0.3746 0.6313 -0.6790
vn 0.3109 0.1152 0.9434
vn 0.2094 -0.2379 0.9485
vn -0.0158 -0.7921 -0.6102
vn -0.0427 -0.9953 -0.0868
vn 0.0157 0.5899 -0.8073
vn 0.0150 -0.5036 -0.8638
vn 0.0182 -0.0537 -0.9984
usemtl Chocolate_Brioche_PBR
s 1
f 47/1/1 11/2/2 68/3/3 124/4/4
f 70/5/5 9/6/6 44/7/7 123/8/8
f 75/9/9 23/10/10 78/11/11 131/12/12
f 69/13/13 126/14/14 70/5/5 21/15/15
f 76/16/16 133/17/17 77/18/18 23/10/10
f 68/3/3 21/15/15 67/19/19 124/4/4
f 70/5/5 126/14/14 43/20/20 9/6/6
f 11/2/2 48/21/21 125/22/22 68/3/3
f 12/23/23 50/24/24 126/14/14 69/13/13
f 49/25/25 12/23/23 69/13/13 125/22/22
f 53/26/26 128/27/27 105/28/28 28/29/29
f 71/30/30 31/31/31 105/28/28 128/27/27
f 56/32/32 131/12/12 58/33/33 7/34/34
f 50/24/24 3/35/35 43/20/20 126/14/14
f 71/30/30 127/36/36 106/37/37 31/31/31
f 91/38/38 27/39/39 106/37/37 127/36/36
f 74/40/40 127/36/36 71/30/30 22/41/41
f 72/42/42 22/41/41 71/30/30 128/27/27
f 107/43/43 35/44/44 121/45/45 130/46/46
f 54/47/47 129/48/48 122/49/49 36/50/50
f 14/51/51 72/42/42 128/27/27 53/26/26
f 13/52/52 83/53/53 139/54/54 91/55/38
f 111/56/55 39/57/56 122/49/49 129/48/48
f 107/58/43 140/59/57 118/60/58 35/61/44
f 8/62/59 55/63/60 129/48/48 54/47/47
f 56/64/32 7/65/34 107/43/43 130/46/46
f 8/66/59 59/67/61 132/68/62 55/69/60
f 55/69/60 132/68/62 75/9/9 15/70/63
f 15/71/63 56/64/32 130/46/46 111/56/55
f 58/72/33 140/59/57 107/58/43 7/73/34
f 15/70/63 75/9/9 131/12/12 56/32/32
f 108/74/64 143/75/65 116/76/66 36/77/50
f 59/67/61 17/78/67 76/16/16 132/68/62
f 78/11/11 16/79/68 58/33/33 131/12/12
f 113/80/69 141/81/70 117/82/71 41/83/72
f 77/18/18 134/84/73 78/11/11 23/10/10
f 83/53/53 25/85/74 86/86/75 139/54/54
f 76/16/16 23/10/10 75/9/9 132/68/62
f 78/11/11 134/84/73 57/87/76 16/79/68
f 17/78/67 60/88/77 133/17/17 76/16/16
f 18/89/78 62/90/79 134/84/73 77/18/18
f 61/91/80 18/89/78 77/18/18 133/17/17
f 65/92/81 136/93/82 119/94/83 38/95/84
f 79/96/85 40/97/86 119/94/83 136/93/82
f 5/98/87 64/99/88 141/81/70 57/100/76
f 62/90/79 5/101/87 57/87/76 134/84/73
f 79/96/85 135/102/89 120/103/90 40/97/86
f 109/104/91 37/105/92 120/103/90 135/102/89
f 82/106/93 135/102/89 79/96/85 24/107/94
f 80/108/95 24/107/94 79/96/85 136/93/82
f 93/109/96 29/110/97 103/111/98 138/112/99
f 66/113/100 137/114/101 104/115/102 30/116/103
f 20/117/104 80/108/95 136/93/82 65/92/81
f 14/118/51 87/119/105 143/75/65 108/74/64
f 96/120/106 32/121/107 104/115/102 137/114/101
f 92/122/108 144/123/109 100/124/110 28/125/29
f 46/126/111 137/114/101 66/113/100 2/127/112
f 1/128/113 93/109/96 138/112/99 45/129/114
f 81/130/115 24/107/94 80/108/95 152/131/116
f 81/130/115 151/132/117 82/106/93 24/107/94
f 45/129/114 138/112/99 96/120/106 10/133/118
f 48/134/21 144/123/109 92/122/108 4/135/119
f 63/136/120 19/137/121 82/106/93 151/132/117
f 53/138/26 148/139/122 87/119/105 14/118/51
f 16/140/68 113/80/69 140/59/57 58/72/33
f 86/86/75 33/141/123 102/142/124 139/54/54
f 98/143/125 145/144/126 99/145/127 34/146/128
f 85/147/129 142/148/130 86/86/75 25/85/74
f 87/119/105 26/149/131 90/150/132 143/75/65
f 113/80/69 41/83/72 118/60/58 140/59/57
f 86/86/75 142/148/130 101/151/133 33/141/123
f 57/100/76 141/81/70 113/80/69 16/140/68
f 19/152/121 63/153/120 142/148/130 85/147/129
f 64/99/88 37/154/92 117/82/71 141/81/70
f 42/155/134 115/156/135 155/157/136 114/158/137
f 84/159/138 157/160/139 85/147/129 25/85/74
f 2/161/112 66/162/100 145/144/126 47/163/1
f 63/153/120 29/164/97 101/151/133 142/148/130
f 34/146/128 99/145/127 147/165/140 88/166/141
f 97/167/142 149/168/143 44/169/7 9/170/6
f 11/171/2 98/143/125 144/123/109 48/134/21
f 90/150/132 42/155/134 116/76/66 143/75/65
f 88/166/141 147/165/140 89/172/144 26/149/131
f 89/172/144 146/173/145 90/150/132 26/149/131
f 100/124/110 34/146/128 88/166/141 148/139/122
f 98/143/125 34/146/128 100/124/110 144/123/109
f 90/150/132 146/173/145 115/156/135 42/155/134
f 47/163/1 145/144/126 98/143/125 11/171/2
f 20/174/104 65/175/81 146/173/145 89/172/144
f 66/162/100 30/176/103 99/145/127 145/144/126
f 33/141/123 101/151/133 149/168/143 97/167/142
f 114/158/137 155/157/136 60/177/77 17/178/67
f 99/145/127 30/176/103 94/179/146 147/165/140
f 65/175/81 38/180/84 115/156/135 146/173/145
f 41/83/72 117/82/71 157/160/139 84/159/138
f 45/181/114 123/8/8 44/7/7 1/182/113
f 101/151/133 29/164/97 93/183/96 149/168/143
f 94/179/146 20/174/104 89/172/144 147/165/140
f 52/184/147 150/185/148 43/186/20 3/187/35
f 28/125/29 100/124/110 148/139/122 53/138/26
f 102/142/124 33/141/123 97/167/142 150/185/148
f 88/166/141 26/149/131 87/119/105 148/139/122
f 95/188/149 154/189/150 50/190/24 12/191/23
f 103/111/98 29/110/97 63/136/120 151/132/117
f 115/156/135 38/180/84 110/192/151 155/157/136
f 93/183/96 1/193/113 44/169/7 149/168/143
f 54/194/47 156/195/152 59/196/61 8/197/59
f 27/198/39 102/142/124 150/185/148 52/184/147
f 116/76/66 42/155/134 114/158/137 156/195/152
f 97/167/142 9/170/6 43/186/20 150/185/148
f 110/199/151 159/200/153 61/201/80 6/202/154
f 105/28/28 31/31/31 95/188/149 153/203/155
f 32/121/107 103/111/98 151/132/117 81/130/115
f 104/115/102 32/121/107 81/130/115 152/131/116
f 52/204/147 3/205/35 50/190/24 154/189/150
f 92/206/108 153/203/155 49/207/25 4/208/119
f 30/116/103 104/115/102 152/131/116 94/209/146
f 13/210/52 91/38/38 127/36/36 74/40/40
f 95/188/149 12/191/23 49/207/25 153/203/155
f 10/133/118 96/120/106 137/114/101 46/126/111
f 28/29/29 105/28/28 153/203/155 92/206/108
f 106/37/37 27/39/39 52/204/147 154/189/150
f 112/211/156 18/212/78 61/201/80 159/200/153
f 112/211/156 160/213/157 62/214/79 18/212/78
f 31/31/31 106/37/37 154/189/150 95/188/149
f 60/88/77 6/215/154 61/91/80 133/17/17
f 64/216/88 5/217/87 62/214/79 160/213/157
f 94/209/146 152/131/116 80/108/95 20/117/104
f 117/82/71 37/154/92 109/218/91 157/160/139
f 110/192/151 6/219/154 60/177/77 155/157/136
f 51/220/158 158/221/159 83/53/53 13/52/52
f 36/77/50 116/76/66 156/195/152 54/194/47
f 118/60/58 41/83/72 84/159/138 158/221/159
f 114/158/137 17/178/67 59/196/61 156/195/152
f 108/222/64 162/223/160 72/42/42 14/51/51
f 119/94/83 40/97/86 112/211/156 159/200/153
f 109/218/91 19/152/121 85/147/129 157/160/139
f 68/3/3 125/22/22 69/13/13 21/15/15
f 35/61/44 118/60/58 158/221/159 51/220/158
f 67/19/19 21/15/15 70/5/5 123/8/8
f 84/159/138 25/85/74 83/53/53 158/221/159
f 10/224/118 67/19/19 123/8/8 45/181/114
f 121/45/45 35/44/44 51/225/158 161/226/161
f 38/95/84 119/94/83 159/200/153 110/199/151
f 120/103/90 37/105/92 64/216/88 160/213/157
f 73/227/162 22/41/41 72/42/42 162/223/160
f 73/227/162 161/226/161 74/40/40 22/41/41
f 40/97/86 120/103/90 160/213/157 112/211/156
f 55/63/60 15/71/63 111/56/55 129/48/48
f 51/225/158 13/210/52 74/40/40 161/226/161
f 19/137/121 109/104/91 135/102/89 82/106/93
f 39/57/56 121/45/45 161/226/161 73/227/162
f 122/49/49 39/57/56 73/227/162 162/223/160
f 48/21/21 4/228/119 49/25/25 125/22/22
f 2/229/112 47/1/1 124/4/4 46/230/111
f 36/50/50 122/49/49 162/223/160 108/222/64
f 111/56/55 130/46/46 121/45/45 39/57/56
f 46/230/111 124/4/4 67/19/19 10/224/118
f 96/120/106 138/112/99 103/111/98 32/121/107
f 91/55/38 139/54/54 102/142/124 27/198/39
