# Blender v2.90.0 OBJ File: ''
# www.blender.org
mtllib finger_low.mtl
o Plane.002
v -0.169743 0.301303 0.382029
v -0.108120 -0.003640 0.338940
v -0.337949 0.301932 0.055678
v -0.249638 -0.006873 0.079394
v 0.110080 0.312071 0.535659
v 0.186507 0.002556 0.500259
v -0.192389 0.318324 -0.301452
v -0.154319 0.006127 -0.324949
v 0.151585 0.378924 -0.412093
v 0.249489 0.006065 -0.594826
v 0.558524 0.396356 -0.332139
v 0.678877 0.002838 -0.533671
v 0.945616 0.312970 -0.181300
v 1.011756 0.004290 -0.448952
v 0.542557 0.302177 0.405635
v 0.603113 0.019506 0.439507
v 1.000232 0.339192 0.330983
v 1.039733 0.010526 0.286219
v 1.043591 0.335557 0.007924
v 1.047884 0.016313 0.011449
v -0.256605 0.671944 0.412426
v -0.413445 0.674097 0.085603
v 0.022565 0.682545 0.569665
v -0.245058 0.652936 -0.240555
v 0.058190 0.675375 -0.441784
v 0.458050 0.584155 -0.300411
v 0.602037 0.528300 -0.061344
v 0.424127 0.564083 0.494783
v 0.554363 0.465849 0.345417
v 0.637561 0.515417 0.125371
v -0.285936 1.078060 0.368621
v -0.462409 1.078016 0.054233
v -0.032873 1.086344 0.595503
v -0.292342 1.057561 -0.276933
v 0.019507 1.078954 -0.433005
v 0.401218 0.970311 -0.352099
v 0.596313 0.932154 -0.113675
v 0.300931 0.967904 0.511748
v 0.529700 0.928208 0.341880
v 0.628944 0.926067 0.070240
v -0.366975 1.434916 0.364042
v -0.436483 1.460185 0.080547
v -0.129861 1.471263 0.535815
v -0.337693 1.398680 -0.237175
v -0.102340 1.435041 -0.355652
v 0.270304 1.333405 -0.301470
v 0.485467 1.302291 -0.073957
v 0.193590 1.316853 0.540008
v 0.399795 1.291504 0.393323
v 0.535463 1.302090 0.113171
v -0.347475 1.910908 0.399448
v -0.454552 1.910866 0.117191
v -0.109853 1.932108 0.552345
v -0.375070 1.918128 -0.168018
v -0.129809 1.913882 -0.332071
v 0.144820 1.846159 -0.239548
v 0.334705 1.734747 -0.070231
v 0.158549 1.867282 0.520662
v 0.337974 1.767045 0.358578
v 0.422550 1.743524 0.127128
v -0.305181 2.446979 0.424346
v -0.447384 2.446854 0.143364
v -0.066909 2.468478 0.574374
v -0.360871 2.456290 -0.164283
v -0.077970 2.439862 -0.208697
v 0.140677 2.374539 -0.140778
v 0.325067 2.268122 -0.008303
v 0.183050 2.406984 0.505582
v 0.322624 2.306742 0.344349
v 0.383530 2.279174 0.155623
v -0.350150 3.012151 0.507601
v -0.508771 3.011958 0.223929
v -0.107443 3.037277 0.639625
v -0.358300 3.013593 -0.043141
v -0.124467 2.973166 -0.117068
v 0.095922 2.917022 -0.065983
v 0.275905 2.817095 0.078682
v 0.148534 2.970819 0.611224
v 0.286712 2.868367 0.435569
v 0.325104 2.827488 0.246907
v -0.302925 3.599448 0.515770
v -0.343029 3.506339 0.376696
v -0.138352 3.579682 0.575012
v -0.231202 3.532236 0.241860
v -0.126039 3.530751 0.230146
v 0.030236 3.475115 0.238571
v 0.098252 3.438068 0.284550
v 0.011344 3.526877 0.537013
v 0.097478 3.451698 0.439727
v 0.114173 3.434709 0.383706
v -0.038468 3.558726 0.357036
v 0.111399 -0.015373 0.190999
v 0.027413 -0.015990 0.036855
v 0.286379 -0.014167 0.286775
v 0.083855 -0.016111 -0.203061
v 0.323081 -0.015556 -0.362763
v 0.577751 -0.016079 -0.326423
v 0.775389 -0.015149 -0.275955
v 0.533342 -0.013897 0.251247
v 0.791904 -0.014514 0.159839
v 0.797108 -0.016120 -0.003187
v 0.430766 -0.016186 -0.024548
v -0.473726 3.491155 0.349533
v -0.397613 3.600056 0.606619
v -0.147850 3.571194 0.696482
v -0.288449 3.502039 0.134402
v -0.137677 3.491458 0.120113
v 0.042302 3.421343 0.132352
v 0.171118 3.356411 0.216279
v 0.054591 3.491966 0.643708
v 0.173964 3.391705 0.510914
v 0.206480 3.356956 0.399346
vt 0.148142 0.629449
vt 0.153993 0.538206
vt 0.072362 0.546849
vt 0.068447 0.623749
vt 0.056413 0.710083
vt 0.138774 0.709296
vt 0.147857 0.439485
vt 0.066051 0.439606
vt 0.154896 0.336316
vt 0.037051 0.318744
vt 0.155814 0.208321
vt 0.022794 0.206083
vt 0.114868 0.089355
vt 0.003280 0.116199
vt 0.031228 0.817847
vt 0.109410 0.826530
vt 0.003162 0.930902
vt 0.074419 0.922354
vt 0.010154 0.996663
vt 0.086739 0.990967
vt 0.139311 0.034169
vt 0.057985 0.003919
vt 0.169594 0.915991
vt 0.152007 0.851718
vt 0.240310 0.629087
vt 0.246562 0.543883
vt 0.216524 0.234136
vt 0.226849 0.145521
vt 0.187676 0.801988
vt 0.239400 0.358559
vt 0.233899 0.705586
vt 0.236868 0.453602
vt 0.250091 0.096450
vt 0.277377 0.855903
vt 0.293815 0.785049
vt 0.341032 0.370089
vt 0.321296 0.273346
vt 0.331809 0.705057
vt 0.337058 0.624322
vt 0.276801 0.930417
vt 0.329583 0.196563
vt 0.342005 0.540072
vt 0.337529 0.453365
vt 0.345488 0.151493
vt 0.428699 0.404248
vt 0.411827 0.308269
vt 0.427451 0.687832
vt 0.423614 0.616503
vt 0.376746 0.910181
vt 0.373374 0.829331
vt 0.422944 0.229062
vt 0.430857 0.547439
vt 0.418024 0.468049
vt 0.440939 0.182718
vt 0.383610 0.765710
vt 0.540940 0.697319
vt 0.535993 0.629272
vt 0.494853 0.891609
vt 0.498210 0.827109
vt 0.537634 0.350837
vt 0.528067 0.281868
vt 0.536982 0.558000
vt 0.539860 0.489314
vt 0.548971 0.230371
vt 0.523951 0.764718
vt 0.541271 0.421051
vt 0.664051 0.374597
vt 0.658057 0.314975
vt 0.660498 0.564578
vt 0.661049 0.493391
vt 0.678306 0.276617
vt 0.660863 0.768631
vt 0.671956 0.703767
vt 0.664633 0.429968
vt 0.662960 0.637529
vt 0.638206 0.823707
vt 0.634035 0.874917
vt 0.778894 0.570822
vt 0.774645 0.512259
vt 0.782045 0.360736
vt 0.808185 0.327590
vt 0.789973 0.740071
vt 0.797022 0.686659
vt 0.774325 0.463646
vt 0.785761 0.632513
vt 0.774059 0.791537
vt 0.778715 0.416351
vt 0.772392 0.837945
vt 0.890244 0.425664
vt 0.925066 0.397507
vt 0.882866 0.703509
vt 0.885484 0.669537
vt 0.872122 0.529298
vt 0.880979 0.501277
vt 0.881761 0.630703
vt 0.867726 0.585120
vt 0.877633 0.739980
vt 0.882870 0.461259
vt 0.880738 0.766044
vt 0.245708 0.003596
vt 0.250184 0.048663
vt 0.285641 0.003131
vt 0.284119 0.090905
vt 0.258989 0.084928
vt 0.321821 0.026838
vt 0.321821 0.069271
vt 0.213513 0.021158
vt 0.220586 0.072863
vt 0.205187 0.033535
vt 0.204229 0.058136
vt 0.534323 0.113499
vt 0.602092 0.118328
vt 0.619344 0.079467
vt 0.563383 0.048006
vt 0.565206 0.209365
vt 0.620469 0.175107
vt 0.841645 0.038142
vt 0.784121 0.073711
vt 0.788559 0.112914
vt 0.849302 0.104374
vt 0.733301 0.009222
vt 0.720004 0.056703
vt 0.631362 0.003178
vt 0.659712 0.052917
vt 0.788710 0.179121
vt 0.849302 0.216336
vt 0.742020 0.195170
vt 0.770558 0.243418
vt 0.681304 0.208923
vt 0.668028 0.266615
vt 0.700642 0.125231
vt 0.900912 0.581188
vt 0.907656 0.625831
vt 0.909647 0.668758
vt 0.900106 0.533404
vt 0.907156 0.506530
vt 0.910802 0.464878
vt 0.916808 0.442518
vt 0.905215 0.705272
vt 0.904164 0.739337
vt 0.907289 0.753296
vt 0.937167 0.426475
vn -0.6933 -0.2214 0.6858
vn -0.9788 -0.2031 0.0258
vn -0.6996 -0.7104 0.0760
vn -0.4865 -0.7191 0.4961
vn -0.0618 -0.6460 0.7608
vn -0.1342 -0.1343 0.9818
vn -0.7311 -0.0485 -0.6805
vn -0.5916 -0.6070 -0.5305
vn -0.1214 0.1861 -0.9750
vn -0.1088 -0.4520 -0.8853
vn 0.3472 0.5507 -0.7590
vn 0.2464 -0.4365 -0.8653
vn 0.6682 0.6166 -0.4163
vn 0.6629 -0.3681 -0.6520
vn 0.1890 -0.6158 0.7649
vn 0.2755 0.0931 0.9568
vn 0.6714 -0.5519 0.4945
vn 0.6553 0.4691 0.5921
vn 0.7979 -0.6011 -0.0445
vn 0.8226 0.5667 -0.0468
vn 0.7985 0.5956 0.0876
vn 0.6312 0.3893 0.6709
vn -0.7325 -0.1295 0.6683
vn -0.9890 -0.1442 0.0312
vn 0.5314 0.1917 -0.8251
vn 0.7796 0.4979 -0.3799
vn 0.4186 0.0244 0.9078
vn -0.1245 -0.0244 -0.9919
vn -0.1797 -0.0890 0.9797
vn -0.7311 -0.1043 -0.6743
vn 0.8176 0.1326 0.5602
vn 0.4253 0.0670 0.9026
vn -0.0941 0.0744 -0.9928
vn 0.5497 0.1346 -0.8244
vn -0.2158 -0.0009 0.9764
vn -0.7765 -0.0641 0.6269
vn 0.9877 0.1408 0.0682
vn 0.9000 0.1409 -0.4124
vn -0.9975 -0.0688 -0.0173
vn -0.7160 -0.0466 -0.6965
vn -0.1586 0.1079 -0.9814
vn 0.5011 0.2551 -0.8269
vn -0.3098 -0.0168 0.9507
vn -0.8132 -0.0553 0.5793
vn 0.9644 0.2546 0.0706
vn 0.7689 0.1534 0.6207
vn 0.8458 0.2912 -0.4470
vn -0.9995 -0.0318 0.0045
vn -0.7599 0.0216 -0.6496
vn 0.3667 0.0833 0.9266
vn -0.2302 -0.0081 0.9731
vn -0.7810 -0.0041 0.6245
vn 0.9872 0.1595 -0.0015
vn 0.8217 0.0913 0.5625
vn 0.4882 0.1612 -0.8577
vn 0.8170 0.1986 -0.5413
vn -0.9991 0.0009 0.0419
vn -0.7783 0.0483 -0.6260
vn 0.4116 0.0205 0.9111
vn -0.0876 0.1288 -0.9878
vn 0.5075 0.1644 -0.8458
vn 0.8196 0.1245 -0.5592
vn -0.9987 -0.0188 0.0480
vn -0.6748 0.1052 -0.7305
vn 0.9958 0.0826 -0.0385
vn 0.4993 -0.0558 0.8646
vn -0.1695 -0.0882 0.9816
vn 0.0378 0.1735 -0.9841
vn -0.7342 -0.0699 0.6753
vn 0.8742 0.0165 0.4852
vn -0.9991 0.0200 -0.0353
vn -0.5882 0.2326 -0.7745
vn 0.8283 0.2164 -0.5167
vn 0.9873 0.1557 -0.0303
vn 0.5083 -0.0340 0.8605
vn -0.1529 -0.1293 0.9797
vn 0.0447 0.2894 -0.9561
vn -0.7071 -0.1447 0.6921
vn 0.8975 0.0541 0.4375
vn 0.4819 0.2682 -0.8341
vn 0.7790 0.4908 -0.3902
vn 0.8851 0.4648 -0.0205
vn 0.5605 0.5193 0.6450
vn 0.0199 0.5929 0.8050
vn -0.3817 0.7093 -0.5926
vn 0.1125 0.7262 -0.6782
vn -0.5886 0.6427 0.4904
vn -0.8513 0.5165 -0.0917
vn 0.8479 0.4516 0.2778
vn 0.4779 0.6085 -0.6334
vn 0.4995 0.8654 0.0389
vn 0.3151 0.9341 -0.1675
vn 0.2244 0.9726 0.0602
vn -0.1035 0.9869 -0.1238
vn 0.1449 0.9380 -0.3146
vn -0.0468 0.9731 -0.2253
vn -0.1843 0.9477 -0.2606
vn 0.6382 0.7690 -0.0362
vn 0.4794 0.8176 -0.3188
vn 0.6493 0.7571 -0.0721
vn 0.6259 0.7584 -0.1818
vn -0.0270 -0.9996 -0.0013
vn -0.0139 -0.9995 0.0296
vn -0.0330 -0.9988 -0.0357
vn 0.0513 -0.9972 0.0551
vn 0.0580 -0.9983 0.0020
vn 0.0225 -0.9969 0.0759
vn 0.0113 -0.9980 0.0628
vn 0.0460 -0.9986 -0.0265
vn 0.0084 -0.9990 -0.0443
vn -0.0129 -0.9985 -0.0531
vn 0.0007 -1.0000 0.0028
usemtl None
s 1
f 1/1/1 3/2/2 4/3/3 2/4/4
f 2/4/4 6/5/5 5/6/6 1/1/1
f 3/2/2 7/7/7 8/8/8 4/3/3
f 7/7/7 9/9/9 10/10/10 8/8/8
f 9/9/9 11/11/11 12/12/12 10/10/10
f 11/11/11 13/13/13 14/14/14 12/12/12
f 6/5/5 16/15/15 15/16/16 5/6/6
f 16/15/15 18/17/17 17/18/18 15/16/16
f 18/17/17 20/19/19 19/20/20 17/18/18
f 14/14/14 13/13/13 19/21/20 20/22/19
f 19/20/20 30/23/21 29/24/22 17/18/18
f 1/1/1 21/25/23 22/26/24 3/2/2
f 11/11/11 26/27/25 27/28/26 13/13/13
f 17/18/18 29/24/22 28/29/27 15/16/16
f 9/9/9 25/30/28 26/27/25 11/11/11
f 15/16/16 28/29/27 23/31/29 5/6/6
f 7/7/7 24/32/30 25/30/28 9/9/9
f 3/2/2 22/26/24 24/32/30 7/7/7
f 13/13/13 27/28/26 30/33/21 19/21/20
f 5/6/6 23/31/29 21/25/23 1/1/1
f 29/24/22 39/34/31 38/35/32 28/29/27
f 25/30/28 35/36/33 36/37/34 26/27/25
f 23/31/29 33/38/35 31/39/36 21/25/23
f 30/23/21 40/40/37 39/34/31 29/24/22
f 26/27/25 36/37/34 37/41/38 27/28/26
f 22/26/24 32/42/39 34/43/40 24/32/30
f 27/28/26 37/41/38 40/44/37 30/33/21
f 28/29/27 38/35/32 33/38/35 23/31/29
f 24/32/30 34/43/40 35/36/33 25/30/28
f 21/25/23 31/39/36 32/42/39 22/26/24
f 35/36/33 45/45/41 46/46/42 36/37/34
f 33/38/35 43/47/43 41/48/44 31/39/36
f 40/40/37 50/49/45 49/50/46 39/34/31
f 36/37/34 46/46/42 47/51/47 37/41/38
f 32/42/39 42/52/48 44/53/49 34/43/40
f 37/41/38 47/51/47 50/54/45 40/44/37
f 38/35/32 48/55/50 43/47/43 33/38/35
f 34/43/40 44/53/49 45/45/41 35/36/33
f 31/39/36 41/48/44 42/52/48 32/42/39
f 39/34/31 49/50/46 48/55/50 38/35/32
f 43/47/43 53/56/51 51/57/52 41/48/44
f 50/49/45 60/58/53 59/59/54 49/50/46
f 46/46/42 56/60/55 57/61/56 47/51/47
f 42/52/48 52/62/57 54/63/58 44/53/49
f 47/51/47 57/61/56 60/64/53 50/54/45
f 48/55/50 58/65/59 53/56/51 43/47/43
f 44/53/49 54/63/58 55/66/60 45/45/41
f 41/48/44 51/57/52 52/62/57 42/52/48
f 49/50/46 59/59/54 58/65/59 48/55/50
f 45/45/41 55/66/60 56/60/55 46/46/42
f 56/60/55 66/67/61 67/68/62 57/61/56
f 52/62/57 62/69/63 64/70/64 54/63/58
f 57/61/56 67/68/62 70/71/65 60/64/53
f 58/65/59 68/72/66 63/73/67 53/56/51
f 54/63/58 64/70/64 65/74/68 55/66/60
f 51/57/52 61/75/69 62/69/63 52/62/57
f 59/59/54 69/76/70 68/72/66 58/65/59
f 55/66/60 65/74/68 66/67/61 56/60/55
f 53/56/51 63/73/67 61/75/69 51/57/52
f 60/58/53 70/77/65 69/76/70 59/59/54
f 62/69/63 72/78/71 74/79/72 64/70/64
f 67/68/62 77/80/73 80/81/74 70/71/65
f 68/72/66 78/82/75 73/83/76 63/73/67
f 64/70/64 74/79/72 75/84/77 65/74/68
f 61/75/69 71/85/78 72/78/71 62/69/63
f 69/76/70 79/86/79 78/82/75 68/72/66
f 65/74/68 75/84/77 76/87/80 66/67/61
f 63/73/67 73/83/76 71/85/78 61/75/69
f 70/77/65 80/88/74 79/86/79 69/76/70
f 66/67/61 76/87/80 77/80/73 67/68/62
f 77/80/73 109/89/81 112/90/82 80/81/74
f 78/82/75 110/91/83 105/92/84 73/83/76
f 74/79/72 106/93/85 107/94/86 75/84/77
f 71/85/78 104/95/87 103/96/88 72/78/71
f 79/86/79 111/97/89 110/91/83 78/82/75
f 75/84/77 107/94/86 108/98/90 76/87/80
f 73/83/76 105/92/84 104/95/87 71/85/78
f 80/88/74 112/99/82 111/97/89 79/86/79
f 76/87/80 108/98/90 109/89/81 77/80/73
f 72/78/71 103/96/88 106/93/85 74/79/72
f 88/100/91 91/101/92 83/102/93
f 84/103/94 91/101/92 85/104/95
f 81/105/96 91/101/92 82/106/97
f 89/107/98 91/101/92 88/100/91
f 85/104/95 91/101/92 86/108/99
f 83/102/93 91/101/92 81/105/96
f 90/109/100 91/101/92 89/107/98
f 86/108/99 91/101/92 87/110/101
f 82/106/97 91/101/92 84/103/94
f 87/110/101 91/101/92 90/109/100
f 4/111/3 93/112/102 92/113/103 2/114/4
f 8/115/8 95/116/104 93/112/102 4/111/3
f 18/117/17 100/118/105 101/119/106 20/120/19
f 16/121/15 99/122/107 100/118/105 18/117/17
f 6/123/5 94/124/108 99/122/107 16/121/15
f 20/120/19 101/119/106 98/125/109 14/126/14
f 14/126/14 98/125/109 97/127/110 12/128/12
f 12/128/12 97/127/110 96/129/111 10/130/10
f 2/114/4 92/113/103 94/124/108 6/123/5
f 10/130/10 96/129/111 95/116/104 8/115/8
f 93/112/102 102/131/112 92/113/103
f 99/122/107 102/131/112 100/118/105
f 97/127/110 102/131/112 96/129/111
f 92/113/103 102/131/112 94/124/108
f 100/118/105 102/131/112 101/119/106
f 98/125/109 102/131/112 97/127/110
f 95/116/104 102/131/112 93/112/102
f 101/119/106 102/131/112 98/125/109
f 94/124/108 102/131/112 99/122/107
f 96/129/111 102/131/112 95/116/104
f 82/132/97 103/96/88 104/95/87 81/133/96
f 81/133/96 104/95/87 105/92/84 83/134/93
f 84/135/94 106/93/85 103/96/88 82/132/97
f 85/136/95 107/94/86 106/93/85 84/135/94
f 86/137/99 108/98/90 107/94/86 85/136/95
f 87/138/101 109/89/81 108/98/90 86/137/99
f 83/134/93 105/92/84 110/91/83 88/139/91
f 88/139/91 110/91/83 111/97/89 89/140/98
f 89/140/98 111/97/89 112/99/82 90/141/100
f 90/142/100 112/90/82 109/89/81 87/138/101
