# Blender v2.90.0 OBJ File: 'pregnant.blend'
# www.blender.org
mtllib pregnant_low.mtl
o pregnant_low_Cube.002
v -0.134590 -0.035385 1.150719
v -0.134590 0.035385 1.150719
v -0.135522 -0.036318 -0.706677
v -0.097506 0.036318 -0.744694
v 0.134590 -0.035385 1.150719
v 0.134590 0.035385 1.150719
v 0.135522 -0.036318 -0.706677
v 0.097506 0.036318 -0.744694
v -0.164626 -0.065422 1.126476
v -0.164626 0.065422 1.126476
v 0.164626 0.065422 1.126476
v 0.164626 -0.065422 1.126476
v -0.061416 -0.013725 1.370383
v -0.061416 0.013725 1.370383
v 0.061416 0.013725 1.370383
v 0.061416 -0.013725 1.370383
v 0.134590 0.035385 1.220276
v 0.134590 -0.035385 1.220276
v -0.134590 -0.035385 1.220276
v -0.134590 0.035385 1.220276
v -0.083076 -0.035385 1.370383
v -0.083076 0.035385 1.370383
v 0.083076 0.035385 1.370383
v 0.083076 -0.035385 1.370383
v -0.061416 -0.013725 2.109735
v -0.061416 0.013725 2.109735
v 0.061416 0.013725 2.109735
v 0.061416 -0.013725 2.109735
v -0.164626 0.065422 -0.706677
v -0.164626 -0.065422 -0.706677
v 0.164626 -0.065422 -0.706677
v 0.164626 0.065422 -0.706677
v -0.017233 0.036318 -0.900015
v -0.097506 0.036318 -0.819742
v -0.059201 0.036318 -0.888770
v -0.086260 0.036318 -0.861711
v -0.135522 -0.036318 -0.824747
v -0.022238 -0.036318 -0.938032
v -0.120345 -0.036318 -0.881389
v -0.078880 -0.036318 -0.922855
v 0.022238 -0.036318 -0.938032
v 0.135522 -0.036318 -0.824747
v 0.078880 -0.036318 -0.922855
v 0.120345 -0.036318 -0.881389
v 0.097506 0.036318 -0.819742
v 0.017233 0.036318 -0.900015
v 0.086260 0.036318 -0.861711
v 0.059201 0.036318 -0.888770
v -0.164626 -0.065422 -0.248389
v -0.164626 -0.065422 0.209899
v -0.164626 -0.065422 0.531100
v -0.105725 0.065422 0.590002
v -0.164626 0.065422 0.209899
v -0.164626 0.065422 -0.248389
v 0.164626 -0.065422 0.531100
v 0.164626 -0.065422 0.209899
v 0.164626 -0.065422 -0.248389
v 0.164626 0.065422 -0.248389
v 0.164626 0.065422 0.209899
v 0.105725 0.065422 0.590002
v -0.135522 0.036318 -0.706677
v 0.135522 0.036318 -0.706677
v -0.078880 0.036318 -0.922855
v -0.022238 0.036318 -0.938032
v -0.120345 0.036318 -0.881389
v -0.135522 0.036318 -0.824747
v 0.120345 0.036318 -0.881389
v 0.135522 0.036318 -0.824747
v 0.078880 0.036318 -0.922855
v 0.022238 0.036318 -0.938032
v -0.000000 0.036318 -0.811895
v -0.164626 -0.065422 1.067566
v 0.105725 0.065422 1.008664
v -0.105725 0.065422 1.008664
v 0.164626 -0.065422 1.067566
v -0.164626 0.065422 1.067566
v -0.164626 0.065422 0.531100
v 0.164626 0.065422 0.531100
v 0.164626 0.065422 1.067566
v -0.105725 0.031814 1.008664
v -0.105725 0.031814 0.590002
v 0.105725 0.031814 0.590002
v 0.105725 0.031814 1.008664
vt 0.251237 0.460202
vt 0.251237 0.547355
vt 0.002486 0.547355
vt 0.002486 0.460202
vt 0.234719 0.738805
vt 0.381841 0.738805
vt 0.381841 0.817450
vt 0.373603 0.855178
vt 0.351096 0.882797
vt 0.320351 0.892907
vt 0.296210 0.892907
vt 0.265464 0.882797
vt 0.242957 0.855178
vt 0.234719 0.817450
vt 0.034461 0.554730
vt 0.034461 0.641883
vt 0.002486 0.641883
vt 0.002486 0.554730
vt 0.905009 0.890103
vt 0.857870 0.890103
vt 0.857870 0.808459
vt 0.905009 0.808459
vt 0.965537 0.221798
vt 0.965537 0.002487
vt 0.997512 0.002487
vt 0.997512 0.221798
vt 0.965537 0.450651
vt 0.965537 0.231340
vt 0.997512 0.231340
vt 0.997513 0.450651
vt 0.873710 0.368142
vt 0.873710 0.321003
vt 0.890013 0.300996
vt 0.890013 0.388149
vt 0.727601 0.321003
vt 0.727601 0.368142
vt 0.711297 0.388149
vt 0.711297 0.300996
vt 0.002485 0.731072
vt 0.002485 0.649255
vt 0.403801 0.649255
vt 0.403801 0.731072
vt 0.669199 0.848740
vt 0.523090 0.848740
vt 0.551051 0.748756
vt 0.641238 0.748756
vt 0.957121 0.890099
vt 0.909982 0.890099
vt 0.909982 0.808455
vt 0.957121 0.808455
vt 0.386817 0.795091
vt 0.532926 0.795091
vt 0.504964 0.895075
vt 0.414778 0.895075
vt 0.386817 0.748760
vt 0.532926 0.748760
vt 0.957121 0.927853
vt 0.909982 0.927853
vt 0.669199 0.895071
vt 0.523090 0.895071
vt 0.905009 0.927858
vt 0.857870 0.927858
vt 0.445968 0.942289
vt 0.445968 0.960574
vt 0.434212 0.975001
vt 0.434212 0.927862
vt 0.512642 0.960574
vt 0.512642 0.942289
vt 0.524398 0.927862
vt 0.524398 0.975001
vt 0.777963 0.276121
vt 0.777963 0.294405
vt 0.711290 0.294405
vt 0.711290 0.276121
vt 0.002492 0.916295
vt 0.002492 0.898010
vt 0.403801 0.898010
vt 0.403801 0.916295
vt 0.810090 0.649251
vt 0.810090 0.731069
vt 0.408773 0.731069
vt 0.408773 0.649251
vt 0.408781 0.921266
vt 0.408781 0.902981
vt 0.810090 0.902981
vt 0.810090 0.921266
vt 0.689969 0.827845
vt 0.689969 0.876226
vt 0.674172 0.895612
vt 0.674172 0.808459
vt 0.837091 0.876226
vt 0.852888 0.895612
vt 0.837091 0.827845
vt 0.852888 0.808459
vt 0.712785 0.797138
vt 0.712785 0.748756
vt 0.736926 0.748756
vt 0.736926 0.797138
vt 0.329483 0.922889
vt 0.329483 0.971271
vt 0.265397 0.971271
vt 0.265397 0.922890
vt 0.682040 0.797138
vt 0.682040 0.748757
vt 0.659533 0.797138
vt 0.659533 0.748757
vt 0.429234 0.927858
vt 0.429234 0.976240
vt 0.398539 0.976240
vt 0.398539 0.927858
vt 0.234702 0.971271
vt 0.234702 0.922890
vt 0.790178 0.748756
vt 0.790178 0.797138
vt 0.767671 0.797138
vt 0.767671 0.748756
vt 0.334453 0.976240
vt 0.334453 0.927858
vt 0.002488 0.450651
vt 0.002488 0.231340
vt 0.251244 0.231340
vt 0.251244 0.450651
vt 0.500000 0.231340
vt 0.500000 0.450651
vt 0.674346 0.231340
vt 0.674346 0.450651
vt 0.002488 0.221798
vt 0.002488 0.002488
vt 0.251244 0.002488
vt 0.251244 0.221798
vt 0.500000 0.002488
vt 0.500000 0.221798
vt 0.674346 0.002488
vt 0.674346 0.221798
vt 0.997492 0.554730
vt 0.997493 0.641883
vt 0.748741 0.641883
vt 0.748741 0.554730
vt 0.499989 0.641883
vt 0.499989 0.554730
vt 0.325646 0.641883
vt 0.325646 0.554730
vt 0.965517 0.460202
vt 0.965517 0.547355
vt 0.674332 0.547355
vt 0.674332 0.460202
vt 0.499989 0.547355
vt 0.499989 0.460202
vt 0.840386 0.669892
vt 0.840386 0.775743
vt 0.815064 0.796378
vt 0.815064 0.649256
vt 0.936353 0.754951
vt 0.943843 0.732171
vt 0.969165 0.734888
vt 0.959056 0.765633
vt 0.918329 0.769639
vt 0.931437 0.788140
vt 0.890374 0.775743
vt 0.893708 0.796378
vt 0.918329 0.675996
vt 0.890374 0.669892
vt 0.893708 0.649256
vt 0.931437 0.657494
vt 0.936353 0.690683
vt 0.959056 0.680001
vt 0.943843 0.713463
vt 0.969165 0.710747
vt 0.885148 0.722817
vt 0.997493 0.460202
vt 0.997493 0.547355
vt 0.974136 0.886445
vt 0.974136 0.659201
vt 0.996521 0.659201
vt 0.996521 0.886445
vt 0.933565 0.270574
vt 0.706317 0.270574
vt 0.706318 0.411417
vt 0.933565 0.411417
vt 0.002491 0.879651
vt 0.002491 0.738807
vt 0.229739 0.738807
vt 0.229739 0.879651
vt 0.002488 0.922888
vt 0.229731 0.922888
vt 0.229731 0.945273
vt 0.002488 0.945273
vt 0.894985 0.390896
vt 0.894985 0.276122
vt 0.917371 0.276122
vt 0.917371 0.390896
vt 0.847346 0.353235
vt 0.732573 0.353235
vt 0.732573 0.330849
vt 0.847346 0.330849
vn -1.0000 0.0000 0.0000
vn 0.0000 -1.0000 -0.0000
vn 1.0000 0.0000 0.0000
vn 0.9459 0.0000 0.3246
vn 0.0000 1.0000 0.0000
vn -0.6281 0.0000 0.7782
vn 0.6281 0.0000 0.7782
vn 0.0000 -0.6281 0.7782
vn 0.0000 0.6281 0.7782
vn -0.9459 0.0000 0.3246
vn 0.0000 0.0000 1.0000
vn -0.0000 0.0000 -1.0000
vn -0.2588 0.0000 -0.9659
vn -0.7071 0.0000 -0.7071
vn -0.9659 0.0000 -0.2588
vn 0.9659 0.0000 -0.2588
vn 0.7071 0.0000 -0.7071
vn 0.2588 0.0000 -0.9659
usemtl None
s off
f 49/1/1 54/2/1 29/3/1 30/4/1
f 7/5/2 3/6/2 37/7/2 39/8/2 40/9/2 38/10/2 41/11/2 43/12/2 44/13/2 42/14/2
f 75/15/3 79/16/3 11/17/3 12/18/3
f 18/19/4 17/20/4 23/21/4 24/22/4
f 72/23/2 75/24/2 12/25/2 9/26/2
f 79/27/5 76/28/5 10/29/5 11/30/5
f 1/31/6 2/32/6 10/33/6 9/34/6
f 6/35/7 5/36/7 12/37/7 11/38/7
f 5/36/8 1/31/8 9/34/8 12/37/8
f 2/32/9 6/35/9 11/38/9 10/33/9
f 15/39/5 14/40/5 26/41/5 27/42/5
f 19/43/2 18/44/2 24/45/2 21/46/2
f 20/47/10 19/48/10 21/49/10 22/50/10
f 17/51/5 20/52/5 22/53/5 23/54/5
f 6/55/5 2/56/5 20/52/5 17/51/5
f 2/57/1 1/58/1 19/48/1 20/47/1
f 1/59/2 5/60/2 18/44/2 19/43/2
f 5/61/3 6/62/3 17/20/3 18/19/3
f 13/63/11 14/64/11 22/65/11 21/66/11
f 15/67/11 16/68/11 24/69/11 23/70/11
f 16/68/11 13/63/11 21/66/11 24/69/11
f 14/64/11 15/67/11 23/70/11 22/65/11
f 28/71/11 27/72/11 26/73/11 25/74/11
f 16/75/3 15/76/3 27/77/3 28/78/3
f 13/79/2 16/80/2 28/81/2 25/82/2
f 14/83/1 13/84/1 25/85/1 26/86/1
f 61/87/12 3/88/12 30/89/12 29/90/12
f 3/88/12 7/91/12 31/92/12 30/89/12
f 62/93/12 61/87/12 29/90/12 32/94/12
f 7/91/12 62/93/12 32/94/12 31/92/12
f 38/95/12 64/96/12 70/97/12 41/98/12
f 62/99/3 7/100/3 42/101/3 68/102/3
f 64/96/13 38/95/13 40/103/13 63/104/13
f 63/104/14 40/103/14 39/105/14 65/106/14
f 65/107/15 39/108/15 37/109/15 66/110/15
f 68/102/16 42/101/16 44/111/16 67/112/16
f 67/113/17 44/114/17 43/115/17 69/116/17
f 69/116/18 43/115/18 41/98/18 70/97/18
f 3/117/1 61/118/1 66/110/1 37/109/1
f 32/119/5 29/120/5 54/121/5 58/122/5
f 58/122/5 54/121/5 53/123/5 59/124/5
f 59/124/5 53/123/5 77/125/5 78/126/5
f 30/127/2 31/128/2 57/129/2 49/130/2
f 49/130/2 57/129/2 56/131/2 50/132/2
f 50/132/2 56/131/2 55/133/2 51/134/2
f 31/135/3 32/136/3 58/137/3 57/138/3
f 57/138/3 58/137/3 59/139/3 56/140/3
f 56/140/3 59/139/3 78/141/3 55/142/3
f 72/143/1 76/144/1 77/145/1 51/146/1
f 51/146/1 77/145/1 53/147/1 50/148/1
f 50/148/1 53/147/1 54/2/1 49/1/1
f 8/149/5 4/150/5 61/151/5 62/152/5
f 35/153/5 33/154/5 64/155/5 63/156/5
f 36/157/5 35/153/5 63/156/5 65/158/5
f 34/159/5 36/157/5 65/158/5 66/160/5
f 47/161/5 45/162/5 68/163/5 67/164/5
f 48/165/5 47/161/5 67/164/5 69/166/5
f 46/167/5 48/165/5 69/166/5 70/168/5
f 4/150/5 34/159/5 66/160/5 61/151/5
f 33/154/5 46/167/5 70/168/5 64/155/5
f 45/162/5 8/149/5 62/152/5 68/163/5
f 4/150/5 8/149/5 71/169/5
f 8/149/5 45/162/5 71/169/5
f 45/162/5 47/161/5 71/169/5
f 47/161/5 48/165/5 71/169/5
f 48/165/5 46/167/5 71/169/5
f 46/167/5 33/154/5 71/169/5
f 33/154/5 35/153/5 71/169/5
f 35/153/5 36/157/5 71/169/5
f 36/157/5 34/159/5 71/169/5
f 34/159/5 4/150/5 71/169/5
f 9/170/1 10/171/1 76/144/1 72/143/1
f 73/172/1 60/173/1 82/174/1 83/175/1
f 51/134/2 55/133/2 75/24/2 72/23/2
f 55/142/3 78/141/3 79/16/3 75/15/3
f 74/176/5 52/177/5 77/125/5 76/28/5
f 52/177/5 60/178/5 78/126/5 77/125/5
f 60/178/5 73/179/5 79/27/5 78/126/5
f 82/180/5 81/181/5 80/182/5 83/183/5
f 52/184/3 74/185/3 80/186/3 81/187/3
f 74/188/12 73/189/12 83/190/12 80/191/12
f 60/192/11 52/193/11 81/194/11 82/195/11
f 73/179/5 74/176/5 76/28/5 79/27/5
